<svg width="26" height="19" viewBox="0 0 26 19" fill="none" xmlns="http://www.w3.org/2000/svg">
<path d="M25.5994 6.50916C26.1336 7.04342 26.1336 7.90964 25.5994 8.4439L15.8926 18.1506C15.3584 18.6849 14.4922 18.6849 13.9579 18.1506L7.84943 12.0422C7.31516 11.5079 7.31516 10.6417 7.84943 10.1074L17.5562 0.400697C18.0904 -0.133567 18.9566 -0.133565 19.4909 0.400698L25.5994 6.50916Z" fill="#4A6DFF"/>
<path d="M18.1506 6.50916C18.6849 7.04342 18.6849 7.90964 18.1506 8.4439L8.4439 18.1506C7.90964 18.6849 7.04342 18.6849 6.50916 18.1506L0.400698 12.0422C-0.133566 11.5079 -0.133566 10.6417 0.400698 10.1074L10.1074 0.400697C10.6417 -0.133567 11.5079 -0.133565 12.0422 0.400698L18.1506 6.50916Z" fill="#2EB9FF"/>
</svg>
